# xmcd
#
# Track frame offsets:
#	150
#	13683
#	33885
#	49524
#	70065
#	82173
#	95256
#	112875
#	137493
#	157249
#	169346
#	185311
#	207157
#
# Disc length: 2989 seconds
#
# Revision: 1
# Processed by: cddbd v1.5.2PL0 Copyright (c) Steve Scherf et al.
# Submitted via: audiograbber 1.83.01
#
DISCID=a50bab0d
DTITLE=Пару Рублей - Трезвый расчет
DYEAR=2006
DGENRE=Ska
TTITLE0=Пару Рублей
TTITLE1=33
TTITLE2=Огненная вода
TTITLE3=Я не могу иначе
TTITLE4=Шлягер или Хит
TTITLE5=Тачка
TTITLE6=Стать звездой
TTITLE7=Альтаир
TTITLE8=Молодо-зелено
TTITLE9=Выходной
TTITLE10=Январь-Календарь
TTITLE11=Прощальная
TTITLE12=P.S. Напролом
EXTD=
EXTT0=
EXTT1=
EXTT2=
EXTT3=
EXTT4=
EXTT5=
EXTT6=
EXTT7=
EXTT8=
EXTT9=
EXTT10=
EXTT11=
EXTT12=
PLAYORDER=
